<svg xmlns="http://www.w3.org/2000/svg" version="1.1" xmlns:xlink="http://www.w3.org/1999/xlink" xmlns:svgjs="http://svgjs.dev/svgjs" width="1440" height="560" preserveAspectRatio="none" viewBox="0 0 1440 560"><g mask="url(&quot;#SvgjsMask1014&quot;)" fill="none"><rect width="1440" height="560" x="0" y="0" fill="#0e2a47"></rect><path d="M-96.65 358.62L-96.65 358.62" stroke="rgba(46, 86, 153, 0.6)" stroke-width="1.5"></path><path d="M-96.65 358.62L-59.27 499.48" stroke="rgba(46, 86, 153, 0.6)" stroke-width="1.5"></path><path d="M-96.65 358.62L70.73 367.04" stroke="rgba(46, 86, 153, 0.6)" stroke-width="1.5"></path><path d="M-96.65 358.62L66.47 509.43" stroke="rgba(46, 86, 153, 0.6)" stroke-width="1.5"></path><path d="M-59.27 499.48L-59.27 499.48" stroke="rgba(46, 86, 153, 0.6)" stroke-width="1.5"></path><path d="M-59.27 499.48L66.47 509.43" stroke="rgba(46, 86, 153, 0.6)" stroke-width="1.5"></path><path d="M-59.27 499.48L70.73 367.04" stroke="rgba(46, 86, 153, 0.6)" stroke-width="1.5"></path><path d="M-59.27 499.48L43.54 707.61" stroke="rgba(46, 86, 153, 0.6)" stroke-width="1.5"></path><path d="M70.73 367.04L70.73 367.04" stroke="rgba(46, 86, 153, 0.6)" stroke-width="1.5"></path><path d="M70.73 367.04L193.27 347.07" stroke="rgba(46, 86, 153, 0.6)" stroke-width="1.5"></path><path d="M70.73 367.04L66.47 509.43" stroke="rgba(46, 86, 153, 0.6)" stroke-width="1.5"></path><path d="M66.47 509.43L66.47 509.43" stroke="rgba(46, 86, 153, 0.6)" stroke-width="1.5"></path><path d="M43.54 707.61L43.54 707.61" stroke="rgba(46, 86, 153, 0.6)" stroke-width="1.5"></path><path d="M43.54 707.61L226.77 700.85" stroke="rgba(46, 86, 153, 0.6)" stroke-width="1.5"></path><path d="M43.54 707.61L66.47 509.43" stroke="rgba(46, 86, 153, 0.6)" stroke-width="1.5"></path><path d="M43.54 707.61L230.82 539.61" stroke="rgba(46, 86, 153, 0.6)" stroke-width="1.5"></path><path d="M43.54 707.61L70.73 367.04" stroke="rgba(46, 86, 153, 0.6)" stroke-width="1.5"></path><path d="M43.54 707.61L392.23 681.06" stroke="rgba(46, 86, 153, 0.6)" stroke-width="1.5"></path><path d="M193.27 347.07L193.27 347.07" stroke="rgba(46, 86, 153, 0.6)" stroke-width="1.5"></path><path d="M193.27 347.07L230.82 539.61" stroke="rgba(46, 86, 153, 0.6)" stroke-width="1.5"></path><path d="M193.27 347.07L66.47 509.43" stroke="rgba(46, 86, 153, 0.6)" stroke-width="1.5"></path><path d="M193.27 347.07L404.11 364.49" stroke="rgba(46, 86, 153, 0.6)" stroke-width="1.5"></path><path d="M193.27 347.07L339.5 508.2" stroke="rgba(46, 86, 153, 0.6)" stroke-width="1.5"></path><path d="M230.82 539.61L230.82 539.61" stroke="rgba(46, 86, 153, 0.6)" stroke-width="1.5"></path><path d="M230.82 539.61L339.5 508.2" stroke="rgba(46, 86, 153, 0.6)" stroke-width="1.5"></path><path d="M230.82 539.61L226.77 700.85" stroke="rgba(46, 86, 153, 0.6)" stroke-width="1.5"></path><path d="M226.77 700.85L226.77 700.85" stroke="rgba(46, 86, 153, 0.6)" stroke-width="1.5"></path><path d="M226.77 700.85L392.23 681.06" stroke="rgba(46, 86, 153, 0.6)" stroke-width="1.5"></path><path d="M404.11 364.49L404.11 364.49" stroke="rgba(46, 86, 153, 0.6)" stroke-width="1.5"></path><path d="M404.11 364.49L534.77 392.23" stroke="rgba(46, 86, 153, 0.6)" stroke-width="1.5"></path><path d="M404.11 364.49L339.5 508.2" stroke="rgba(46, 86, 153, 0.6)" stroke-width="1.5"></path><path d="M404.11 364.49L493.04 534.99" stroke="rgba(46, 86, 153, 0.6)" stroke-width="1.5"></path><path d="M404.11 364.49L643.29 362.34" stroke="rgba(46, 86, 153, 0.6)" stroke-width="1.5"></path><path d="M339.5 508.2L339.5 508.2" stroke="rgba(46, 86, 153, 0.6)" stroke-width="1.5"></path><path d="M339.5 508.2L493.04 534.99" stroke="rgba(46, 86, 153, 0.6)" stroke-width="1.5"></path><path d="M392.23 681.06L392.23 681.06" stroke="rgba(46, 86, 153, 0.6)" stroke-width="1.5"></path><path d="M392.23 681.06L522.36 684.94" stroke="rgba(46, 86, 153, 0.6)" stroke-width="1.5"></path><path d="M392.23 681.06L493.04 534.99" stroke="rgba(46, 86, 153, 0.6)" stroke-width="1.5"></path><path d="M392.23 681.06L339.5 508.2" stroke="rgba(46, 86, 153, 0.6)" stroke-width="1.5"></path><path d="M534.77 392.23L534.77 392.23" stroke="rgba(46, 86, 153, 0.6)" stroke-width="1.5"></path><path d="M534.77 392.23L643.29 362.34" stroke="rgba(46, 86, 153, 0.6)" stroke-width="1.5"></path><path d="M534.77 392.23L493.04 534.99" stroke="rgba(46, 86, 153, 0.6)" stroke-width="1.5"></path><path d="M493.04 534.99L493.04 534.99" stroke="rgba(46, 86, 153, 0.6)" stroke-width="1.5"></path><path d="M493.04 534.99L522.36 684.94" stroke="rgba(46, 86, 153, 0.6)" stroke-width="1.5"></path><path d="M522.36 684.94L522.36 684.94" stroke="rgba(46, 86, 153, 0.6)" stroke-width="1.5"></path><path d="M522.36 684.94L704.43 687.65" stroke="rgba(46, 86, 153, 0.6)" stroke-width="1.5"></path><path d="M522.36 684.94L339.5 508.2" stroke="rgba(46, 86, 153, 0.6)" stroke-width="1.5"></path><path d="M522.36 684.94L685.69 489.57" stroke="rgba(46, 86, 153, 0.6)" stroke-width="1.5"></path><path d="M651.72 239.67L651.72 239.67" stroke="rgba(46, 86, 153, 0.6)" stroke-width="1.5"></path><path d="M651.72 239.67L643.29 362.34" stroke="rgba(46, 86, 153, 0.6)" stroke-width="1.5"></path><path d="M651.72 239.67L819.08 243.55" stroke="rgba(46, 86, 153, 0.6)" stroke-width="1.5"></path><path d="M651.72 239.67L534.77 392.23" stroke="rgba(46, 86, 153, 0.6)" stroke-width="1.5"></path><path d="M651.72 239.67L797.75 396.27" stroke="rgba(46, 86, 153, 0.6)" stroke-width="1.5"></path><path d="M651.72 239.67L685.69 489.57" stroke="rgba(46, 86, 153, 0.6)" stroke-width="1.5"></path><path d="M651.72 239.67L404.11 364.49" stroke="rgba(46, 86, 153, 0.6)" stroke-width="1.5"></path><path d="M643.29 362.34L643.29 362.34" stroke="rgba(46, 86, 153, 0.6)" stroke-width="1.5"></path><path d="M643.29 362.34L685.69 489.57" stroke="rgba(46, 86, 153, 0.6)" stroke-width="1.5"></path><path d="M643.29 362.34L797.75 396.27" stroke="rgba(46, 86, 153, 0.6)" stroke-width="1.5"></path><path d="M685.69 489.57L685.69 489.57" stroke="rgba(46, 86, 153, 0.6)" stroke-width="1.5"></path><path d="M685.69 489.57L797.75 396.27" stroke="rgba(46, 86, 153, 0.6)" stroke-width="1.5"></path><path d="M685.69 489.57L834.79 503.53" stroke="rgba(46, 86, 153, 0.6)" stroke-width="1.5"></path><path d="M685.69 489.57L534.77 392.23" stroke="rgba(46, 86, 153, 0.6)" stroke-width="1.5"></path><path d="M704.43 687.65L704.43 687.65" stroke="rgba(46, 86, 153, 0.6)" stroke-width="1.5"></path><path d="M704.43 687.65L797.28 661.26" stroke="rgba(46, 86, 153, 0.6)" stroke-width="1.5"></path><path d="M704.43 687.65L685.69 489.57" stroke="rgba(46, 86, 153, 0.6)" stroke-width="1.5"></path><path d="M704.43 687.65L834.79 503.53" stroke="rgba(46, 86, 153, 0.6)" stroke-width="1.5"></path><path d="M704.43 687.65L493.04 534.99" stroke="rgba(46, 86, 153, 0.6)" stroke-width="1.5"></path><path d="M704.43 687.65L797.75 396.27" stroke="rgba(46, 86, 153, 0.6)" stroke-width="1.5"></path><path d="M819.08 243.55L819.08 243.55" stroke="rgba(46, 86, 153, 0.6)" stroke-width="1.5"></path><path d="M819.08 243.55L972.86 244.77" stroke="rgba(46, 86, 153, 0.6)" stroke-width="1.5"></path><path d="M819.08 243.55L797.75 396.27" stroke="rgba(46, 86, 153, 0.6)" stroke-width="1.5"></path><path d="M797.75 396.27L797.75 396.27" stroke="rgba(46, 86, 153, 0.6)" stroke-width="1.5"></path><path d="M797.75 396.27L834.79 503.53" stroke="rgba(46, 86, 153, 0.6)" stroke-width="1.5"></path><path d="M834.79 503.53L834.79 503.53" stroke="rgba(46, 86, 153, 0.6)" stroke-width="1.5"></path><path d="M834.79 503.53L797.28 661.26" stroke="rgba(46, 86, 153, 0.6)" stroke-width="1.5"></path><path d="M797.28 661.26L797.28 661.26" stroke="rgba(46, 86, 153, 0.6)" stroke-width="1.5"></path><path d="M797.28 661.26L685.69 489.57" stroke="rgba(46, 86, 153, 0.6)" stroke-width="1.5"></path><path d="M797.28 661.26L1006.35 516.9" stroke="rgba(46, 86, 153, 0.6)" stroke-width="1.5"></path><path d="M797.28 661.26L797.75 396.27" stroke="rgba(46, 86, 153, 0.6)" stroke-width="1.5"></path><path d="M797.28 661.26L522.36 684.94" stroke="rgba(46, 86, 153, 0.6)" stroke-width="1.5"></path><path d="M1012.21 82.73L1012.21 82.73" stroke="rgba(46, 86, 153, 0.6)" stroke-width="1.5"></path><path d="M1012.21 82.73L972.86 244.77" stroke="rgba(46, 86, 153, 0.6)" stroke-width="1.5"></path><path d="M1012.21 82.73L1121.92 225.49" stroke="rgba(46, 86, 153, 0.6)" stroke-width="1.5"></path><path d="M1012.21 82.73L819.08 243.55" stroke="rgba(46, 86, 153, 0.6)" stroke-width="1.5"></path><path d="M972.86 244.77L972.86 244.77" stroke="rgba(46, 86, 153, 0.6)" stroke-width="1.5"></path><path d="M972.86 244.77L1121.92 225.49" stroke="rgba(46, 86, 153, 0.6)" stroke-width="1.5"></path><path d="M972.86 244.77L995.92 403.06" stroke="rgba(46, 86, 153, 0.6)" stroke-width="1.5"></path><path d="M995.92 403.06L995.92 403.06" stroke="rgba(46, 86, 153, 0.6)" stroke-width="1.5"></path><path d="M995.92 403.06L1006.35 516.9" stroke="rgba(46, 86, 153, 0.6)" stroke-width="1.5"></path><path d="M995.92 403.06L1089.88 497.91" stroke="rgba(46, 86, 153, 0.6)" stroke-width="1.5"></path><path d="M995.92 403.06L1158.16 411.86" stroke="rgba(46, 86, 153, 0.6)" stroke-width="1.5"></path><path d="M995.92 403.06L834.79 503.53" stroke="rgba(46, 86, 153, 0.6)" stroke-width="1.5"></path><path d="M1006.35 516.9L1006.35 516.9" stroke="rgba(46, 86, 153, 0.6)" stroke-width="1.5"></path><path d="M1006.35 516.9L1089.88 497.91" stroke="rgba(46, 86, 153, 0.6)" stroke-width="1.5"></path><path d="M1006.35 516.9L1104.99 643.31" stroke="rgba(46, 86, 153, 0.6)" stroke-width="1.5"></path><path d="M1006.35 516.9L834.79 503.53" stroke="rgba(46, 86, 153, 0.6)" stroke-width="1.5"></path><path d="M1006.35 516.9L1158.16 411.86" stroke="rgba(46, 86, 153, 0.6)" stroke-width="1.5"></path><path d="M1121.92 225.49L1121.92 225.49" stroke="rgba(46, 86, 153, 0.6)" stroke-width="1.5"></path><path d="M1121.92 225.49L1275.92 246.63" stroke="rgba(46, 86, 153, 0.6)" stroke-width="1.5"></path><path d="M1121.92 225.49L1158.16 411.86" stroke="rgba(46, 86, 153, 0.6)" stroke-width="1.5"></path><path d="M1158.16 411.86L1158.16 411.86" stroke="rgba(46, 86, 153, 0.6)" stroke-width="1.5"></path><path d="M1158.16 411.86L1260.35 386.64" stroke="rgba(46, 86, 153, 0.6)" stroke-width="1.5"></path><path d="M1158.16 411.86L1089.88 497.91" stroke="rgba(46, 86, 153, 0.6)" stroke-width="1.5"></path><path d="M1089.88 497.91L1089.88 497.91" stroke="rgba(46, 86, 153, 0.6)" stroke-width="1.5"></path><path d="M1089.88 497.91L1104.99 643.31" stroke="rgba(46, 86, 153, 0.6)" stroke-width="1.5"></path><path d="M1089.88 497.91L1260.35 386.64" stroke="rgba(46, 86, 153, 0.6)" stroke-width="1.5"></path><path d="M1089.88 497.91L1306.3 532.84" stroke="rgba(46, 86, 153, 0.6)" stroke-width="1.5"></path><path d="M1104.99 643.31L1104.99 643.31" stroke="rgba(46, 86, 153, 0.6)" stroke-width="1.5"></path><path d="M1285.16 -43.57L1285.16 -43.57" stroke="rgba(46, 86, 153, 0.6)" stroke-width="1.5"></path><path d="M1285.16 -43.57L1305.58 74.08" stroke="rgba(46, 86, 153, 0.6)" stroke-width="1.5"></path><path d="M1285.16 -43.57L1428.53 -77.52" stroke="rgba(46, 86, 153, 0.6)" stroke-width="1.5"></path><path d="M1305.58 74.08L1305.58 74.08" stroke="rgba(46, 86, 153, 0.6)" stroke-width="1.5"></path><path d="M1305.58 74.08L1415.07 75.1" stroke="rgba(46, 86, 153, 0.6)" stroke-width="1.5"></path><path d="M1275.92 246.63L1275.92 246.63" stroke="rgba(46, 86, 153, 0.6)" stroke-width="1.5"></path><path d="M1275.92 246.63L1390.16 204.69" stroke="rgba(46, 86, 153, 0.6)" stroke-width="1.5"></path><path d="M1275.92 246.63L1260.35 386.64" stroke="rgba(46, 86, 153, 0.6)" stroke-width="1.5"></path><path d="M1260.35 386.64L1260.35 386.64" stroke="rgba(46, 86, 153, 0.6)" stroke-width="1.5"></path><path d="M1260.35 386.64L1306.3 532.84" stroke="rgba(46, 86, 153, 0.6)" stroke-width="1.5"></path><path d="M1260.35 386.64L1430.62 371.82" stroke="rgba(46, 86, 153, 0.6)" stroke-width="1.5"></path><path d="M1306.3 532.84L1306.3 532.84" stroke="rgba(46, 86, 153, 0.6)" stroke-width="1.5"></path><path d="M1306.3 532.84L1412.05 536.78" stroke="rgba(46, 86, 153, 0.6)" stroke-width="1.5"></path><path d="M1270.41 656.91L1270.41 656.91" stroke="rgba(46, 86, 153, 0.6)" stroke-width="1.5"></path><path d="M1270.41 656.91L1306.3 532.84" stroke="rgba(46, 86, 153, 0.6)" stroke-width="1.5"></path><path d="M1270.41 656.91L1104.99 643.31" stroke="rgba(46, 86, 153, 0.6)" stroke-width="1.5"></path><path d="M1270.41 656.91L1412.05 536.78" stroke="rgba(46, 86, 153, 0.6)" stroke-width="1.5"></path><path d="M1428.53 -77.52L1428.53 -77.52" stroke="rgba(46, 86, 153, 0.6)" stroke-width="1.5"></path><path d="M1428.53 -77.52L1415.07 75.1" stroke="rgba(46, 86, 153, 0.6)" stroke-width="1.5"></path><path d="M1428.53 -77.52L1544.73 44.78" stroke="rgba(46, 86, 153, 0.6)" stroke-width="1.5"></path><path d="M1415.07 75.1L1415.07 75.1" stroke="rgba(46, 86, 153, 0.6)" stroke-width="1.5"></path><path d="M1415.07 75.1L1390.16 204.69" stroke="rgba(46, 86, 153, 0.6)" stroke-width="1.5"></path><path d="M1415.07 75.1L1544.73 44.78" stroke="rgba(46, 86, 153, 0.6)" stroke-width="1.5"></path><path d="M1415.07 75.1L1285.16 -43.57" stroke="rgba(46, 86, 153, 0.6)" stroke-width="1.5"></path><path d="M1415.07 75.1L1576.68 216.54" stroke="rgba(46, 86, 153, 0.6)" stroke-width="1.5"></path><path d="M1390.16 204.69L1390.16 204.69" stroke="rgba(46, 86, 153, 0.6)" stroke-width="1.5"></path><path d="M1430.62 371.82L1430.62 371.82" stroke="rgba(46, 86, 153, 0.6)" stroke-width="1.5"></path><path d="M1430.62 371.82L1580.76 344.75" stroke="rgba(46, 86, 153, 0.6)" stroke-width="1.5"></path><path d="M1430.62 371.82L1412.05 536.78" stroke="rgba(46, 86, 153, 0.6)" stroke-width="1.5"></path><path d="M1430.62 371.82L1390.16 204.69" stroke="rgba(46, 86, 153, 0.6)" stroke-width="1.5"></path><path d="M1430.62 371.82L1275.92 246.63" stroke="rgba(46, 86, 153, 0.6)" stroke-width="1.5"></path><path d="M1430.62 371.82L1565.53 521.27" stroke="rgba(46, 86, 153, 0.6)" stroke-width="1.5"></path><path d="M1412.05 536.78L1412.05 536.78" stroke="rgba(46, 86, 153, 0.6)" stroke-width="1.5"></path><path d="M1412.05 536.78L1565.53 521.27" stroke="rgba(46, 86, 153, 0.6)" stroke-width="1.5"></path><path d="M1607.02 -46.9L1607.02 -46.9" stroke="rgba(46, 86, 153, 0.6)" stroke-width="1.5"></path><path d="M1607.02 -46.9L1544.73 44.78" stroke="rgba(46, 86, 153, 0.6)" stroke-width="1.5"></path><path d="M1607.02 -46.9L1428.53 -77.52" stroke="rgba(46, 86, 153, 0.6)" stroke-width="1.5"></path><path d="M1607.02 -46.9L1415.07 75.1" stroke="rgba(46, 86, 153, 0.6)" stroke-width="1.5"></path><path d="M1607.02 -46.9L1576.68 216.54" stroke="rgba(46, 86, 153, 0.6)" stroke-width="1.5"></path><path d="M1544.73 44.78L1544.73 44.78" stroke="rgba(46, 86, 153, 0.6)" stroke-width="1.5"></path><path d="M1544.73 44.78L1576.68 216.54" stroke="rgba(46, 86, 153, 0.6)" stroke-width="1.5"></path><path d="M1544.73 44.78L1390.16 204.69" stroke="rgba(46, 86, 153, 0.6)" stroke-width="1.5"></path><path d="M1576.68 216.54L1576.68 216.54" stroke="rgba(46, 86, 153, 0.6)" stroke-width="1.5"></path><path d="M1576.68 216.54L1580.76 344.75" stroke="rgba(46, 86, 153, 0.6)" stroke-width="1.5"></path><path d="M1576.68 216.54L1390.16 204.69" stroke="rgba(46, 86, 153, 0.6)" stroke-width="1.5"></path><path d="M1576.68 216.54L1430.62 371.82" stroke="rgba(46, 86, 153, 0.6)" stroke-width="1.5"></path><path d="M1580.76 344.75L1580.76 344.75" stroke="rgba(46, 86, 153, 0.6)" stroke-width="1.5"></path><path d="M1580.76 344.75L1565.53 521.27" stroke="rgba(46, 86, 153, 0.6)" stroke-width="1.5"></path><path d="M1580.76 344.75L1390.16 204.69" stroke="rgba(46, 86, 153, 0.6)" stroke-width="1.5"></path><path d="M1580.76 344.75L1412.05 536.78" stroke="rgba(46, 86, 153, 0.6)" stroke-width="1.5"></path><path d="M1580.76 344.75L1544.73 44.78" stroke="rgba(46, 86, 153, 0.6)" stroke-width="1.5"></path><path d="M1565.53 521.27L1565.53 521.27" stroke="rgba(46, 86, 153, 0.6)" stroke-width="1.5"></path><path d="M1565.53 521.27L1609.16 703.02" stroke="rgba(46, 86, 153, 0.6)" stroke-width="1.5"></path><path d="M1565.53 521.27L1306.3 532.84" stroke="rgba(46, 86, 153, 0.6)" stroke-width="1.5"></path><path d="M1609.16 703.02L1609.16 703.02" stroke="rgba(46, 86, 153, 0.6)" stroke-width="1.5"></path><path d="M1609.16 703.02L1412.05 536.78" stroke="rgba(46, 86, 153, 0.6)" stroke-width="1.5"></path><path d="M1609.16 703.02L1270.41 656.91" stroke="rgba(46, 86, 153, 0.6)" stroke-width="1.5"></path><path d="M1609.16 703.02L1306.3 532.84" stroke="rgba(46, 86, 153, 0.6)" stroke-width="1.5"></path><path d="M1609.16 703.02L1580.76 344.75" stroke="rgba(46, 86, 153, 0.6)" stroke-width="1.5"></path><circle r="5" cx="-96.65" cy="358.62" fill="rgba(46, 86, 153, 0.6)"></circle><circle r="5" cx="-59.27" cy="499.48" fill="rgba(46, 86, 153, 0.6)"></circle><circle r="5" cx="70.73" cy="367.04" fill="rgba(46, 86, 153, 0.6)"></circle><circle r="5" cx="66.47" cy="509.43" fill="rgba(46, 86, 153, 0.6)"></circle><circle r="5" cx="43.54" cy="707.61" fill="rgba(46, 86, 153, 0.6)"></circle><circle r="5" cx="193.27" cy="347.07" fill="rgba(46, 86, 153, 0.6)"></circle><circle r="5" cx="230.82" cy="539.61" fill="rgba(46, 86, 153, 0.6)"></circle><circle r="5" cx="226.77" cy="700.85" fill="rgba(46, 86, 153, 0.6)"></circle><circle r="5" cx="404.11" cy="364.49" fill="rgba(46, 86, 153, 0.6)"></circle><circle r="5" cx="339.5" cy="508.2" fill="rgba(46, 86, 153, 0.6)"></circle><circle r="5" cx="392.23" cy="681.06" fill="rgba(46, 86, 153, 0.6)"></circle><circle r="5" cx="534.77" cy="392.23" fill="rgba(46, 86, 153, 0.6)"></circle><circle r="5" cx="493.04" cy="534.99" fill="rgba(46, 86, 153, 0.6)"></circle><circle r="5" cx="522.36" cy="684.94" fill="rgba(46, 86, 153, 0.6)"></circle><circle r="5" cx="651.72" cy="239.67" fill="rgba(46, 86, 153, 0.6)"></circle><circle r="5" cx="643.29" cy="362.34" fill="rgba(46, 86, 153, 0.6)"></circle><circle r="5" cx="685.69" cy="489.57" fill="rgba(46, 86, 153, 0.6)"></circle><circle r="5" cx="704.43" cy="687.65" fill="rgba(46, 86, 153, 0.6)"></circle><circle r="5" cx="819.08" cy="243.55" fill="rgba(46, 86, 153, 0.6)"></circle><circle r="5" cx="797.75" cy="396.27" fill="rgba(46, 86, 153, 0.6)"></circle><circle r="5" cx="834.79" cy="503.53" fill="rgba(46, 86, 153, 0.6)"></circle><circle r="5" cx="797.28" cy="661.26" fill="rgba(46, 86, 153, 0.6)"></circle><circle r="5" cx="1012.21" cy="82.73" fill="rgba(46, 86, 153, 0.6)"></circle><circle r="5" cx="972.86" cy="244.77" fill="rgba(46, 86, 153, 0.6)"></circle><circle r="5" cx="995.92" cy="403.06" fill="rgba(46, 86, 153, 0.6)"></circle><circle r="5" cx="1006.35" cy="516.9" fill="rgba(46, 86, 153, 0.6)"></circle><circle r="5" cx="1121.92" cy="225.49" fill="rgba(46, 86, 153, 0.6)"></circle><circle r="5" cx="1158.16" cy="411.86" fill="rgba(46, 86, 153, 0.6)"></circle><circle r="5" cx="1089.88" cy="497.91" fill="rgba(46, 86, 153, 0.6)"></circle><circle r="5" cx="1104.99" cy="643.31" fill="rgba(46, 86, 153, 0.6)"></circle><circle r="5" cx="1285.16" cy="-43.57" fill="rgba(46, 86, 153, 0.6)"></circle><circle r="5" cx="1305.58" cy="74.08" fill="rgba(46, 86, 153, 0.6)"></circle><circle r="5" cx="1275.92" cy="246.63" fill="rgba(46, 86, 153, 0.6)"></circle><circle r="5" cx="1260.35" cy="386.64" fill="rgba(46, 86, 153, 0.6)"></circle><circle r="5" cx="1306.3" cy="532.84" fill="rgba(46, 86, 153, 0.6)"></circle><circle r="5" cx="1270.41" cy="656.91" fill="rgba(46, 86, 153, 0.6)"></circle><circle r="5" cx="1428.53" cy="-77.52" fill="rgba(46, 86, 153, 0.6)"></circle><circle r="5" cx="1415.07" cy="75.1" fill="rgba(46, 86, 153, 0.6)"></circle><circle r="5" cx="1390.16" cy="204.69" fill="rgba(46, 86, 153, 0.6)"></circle><circle r="5" cx="1430.62" cy="371.82" fill="rgba(46, 86, 153, 0.6)"></circle><circle r="5" cx="1412.05" cy="536.78" fill="rgba(46, 86, 153, 0.6)"></circle><circle r="5" cx="1607.02" cy="-46.9" fill="rgba(46, 86, 153, 0.6)"></circle><circle r="5" cx="1544.73" cy="44.78" fill="rgba(46, 86, 153, 0.6)"></circle><circle r="5" cx="1576.68" cy="216.54" fill="rgba(46, 86, 153, 0.6)"></circle><circle r="5" cx="1580.76" cy="344.75" fill="rgba(46, 86, 153, 0.6)"></circle><circle r="5" cx="1565.53" cy="521.27" fill="rgba(46, 86, 153, 0.6)"></circle><circle r="5" cx="1609.16" cy="703.02" fill="rgba(46, 86, 153, 0.6)"></circle><path d="M61.71 527.04L61.71 527.04" stroke="hsl(231.20000000000005, 100%, 65.5%)" stroke-width="1.5"></path><path d="M61.71 527.04L-102.45 524.68" stroke="hsl(231.20000000000005, 100%, 65.5%)" stroke-width="1.5"></path><path d="M61.71 527.04L86.62 692.46" stroke="hsl(231.20000000000005, 100%, 65.5%)" stroke-width="1.5"></path><path d="M61.71 527.04L249.03 661.35" stroke="hsl(231.20000000000005, 100%, 65.5%)" stroke-width="1.5"></path><path d="M61.71 527.04L-111.17 702.13" stroke="hsl(231.20000000000005, 100%, 65.5%)" stroke-width="1.5"></path><path d="M61.71 527.04L371.21 501.89" stroke="hsl(231.20000000000005, 100%, 65.5%)" stroke-width="1.5"></path><path d="M61.71 527.04L351.89 707.22" stroke="hsl(231.20000000000005, 100%, 65.5%)" stroke-width="1.5"></path><path d="M371.21 501.89L371.21 501.89" stroke="hsl(231.20000000000005, 100%, 65.5%)" stroke-width="1.5"></path><path d="M371.21 501.89L512.12 545.37" stroke="hsl(231.20000000000005, 100%, 65.5%)" stroke-width="1.5"></path><path d="M371.21 501.89L528.41 412.11" stroke="hsl(231.20000000000005, 100%, 65.5%)" stroke-width="1.5"></path><path d="M528.41 412.11L528.41 412.11" stroke="hsl(231.20000000000005, 100%, 65.5%)" stroke-width="1.5"></path><path d="M528.41 412.11L654.92 391.64" stroke="hsl(231.20000000000005, 100%, 65.5%)" stroke-width="1.5"></path><path d="M528.41 412.11L512.12 545.37" stroke="hsl(231.20000000000005, 100%, 65.5%)" stroke-width="1.5"></path><path d="M540.45 687.79L540.45 687.79" stroke="hsl(231.20000000000005, 100%, 65.5%)" stroke-width="1.5"></path><path d="M540.45 687.79L512.12 545.37" stroke="hsl(231.20000000000005, 100%, 65.5%)" stroke-width="1.5"></path><path d="M652.42 537.19L652.42 537.19" stroke="hsl(231.20000000000005, 100%, 65.5%)" stroke-width="1.5"></path><path d="M652.42 537.19L683.92 656.35" stroke="hsl(231.20000000000005, 100%, 65.5%)" stroke-width="1.5"></path><path d="M652.42 537.19L512.12 545.37" stroke="hsl(231.20000000000005, 100%, 65.5%)" stroke-width="1.5"></path><path d="M652.42 537.19L654.92 391.64" stroke="hsl(231.20000000000005, 100%, 65.5%)" stroke-width="1.5"></path><path d="M652.42 537.19L528.41 412.11" stroke="hsl(231.20000000000005, 100%, 65.5%)" stroke-width="1.5"></path><path d="M652.42 537.19L540.45 687.79" stroke="hsl(231.20000000000005, 100%, 65.5%)" stroke-width="1.5"></path><path d="M652.42 537.19L795.45 675" stroke="hsl(231.20000000000005, 100%, 65.5%)" stroke-width="1.5"></path><path d="M975.61 546.01L975.61 546.01" stroke="hsl(231.20000000000005, 100%, 65.5%)" stroke-width="1.5"></path><path d="M975.61 546.01L851.21 523.5" stroke="hsl(231.20000000000005, 100%, 65.5%)" stroke-width="1.5"></path><path d="M975.61 546.01L1106.57 514.65" stroke="hsl(231.20000000000005, 100%, 65.5%)" stroke-width="1.5"></path><path d="M975.61 546.01L957.84 686.77" stroke="hsl(231.20000000000005, 100%, 65.5%)" stroke-width="1.5"></path><path d="M975.61 546.01L1090.31 687.08" stroke="hsl(231.20000000000005, 100%, 65.5%)" stroke-width="1.5"></path><path d="M1090.31 687.08L1090.31 687.08" stroke="hsl(231.20000000000005, 100%, 65.5%)" stroke-width="1.5"></path><path d="M1090.31 687.08L957.84 686.77" stroke="hsl(231.20000000000005, 100%, 65.5%)" stroke-width="1.5"></path><path d="M1090.31 687.08L1106.57 514.65" stroke="hsl(231.20000000000005, 100%, 65.5%)" stroke-width="1.5"></path><path d="M1090.31 687.08L1309.29 694.61" stroke="hsl(231.20000000000005, 100%, 65.5%)" stroke-width="1.5"></path><path d="M1090.31 687.08L851.21 523.5" stroke="hsl(231.20000000000005, 100%, 65.5%)" stroke-width="1.5"></path><path d="M1090.31 687.08L795.45 675" stroke="hsl(231.20000000000005, 100%, 65.5%)" stroke-width="1.5"></path><path d="M1403.5 -86.78L1403.5 -86.78" stroke="hsl(231.20000000000005, 100%, 65.5%)" stroke-width="1.5"></path><path d="M1403.5 -86.78L1300.6 -63.77" stroke="hsl(231.20000000000005, 100%, 65.5%)" stroke-width="1.5"></path><path d="M1403.5 -86.78L1439.57 60.54" stroke="hsl(231.20000000000005, 100%, 65.5%)" stroke-width="1.5"></path><path d="M1403.5 -86.78L1600.44 -103.56" stroke="hsl(231.20000000000005, 100%, 65.5%)" stroke-width="1.5"></path><path d="M1403.5 -86.78L1557.4 58.97" stroke="hsl(231.20000000000005, 100%, 65.5%)" stroke-width="1.5"></path><path d="M1403.5 -86.78L1440.4 250.91" stroke="hsl(231.20000000000005, 100%, 65.5%)" stroke-width="1.5"></path><path d="M1403.5 -86.78L1605.86 216.85" stroke="hsl(231.20000000000005, 100%, 65.5%)" stroke-width="1.5"></path><path d="M1439.57 60.54L1439.57 60.54" stroke="hsl(231.20000000000005, 100%, 65.5%)" stroke-width="1.5"></path><path d="M1439.57 60.54L1557.4 58.97" stroke="hsl(231.20000000000005, 100%, 65.5%)" stroke-width="1.5"></path><path d="M1439.57 60.54L1300.6 -63.77" stroke="hsl(231.20000000000005, 100%, 65.5%)" stroke-width="1.5"></path><path d="M-102.45 524.68L-102.45 524.68" stroke="hsl(231.20000000000005, 100%, 65.5%)" stroke-width="1.5"></path><path d="M-102.45 524.68L-111.17 702.13" stroke="hsl(231.20000000000005, 100%, 65.5%)" stroke-width="1.5"></path><path d="M-111.17 702.13L-111.17 702.13" stroke="hsl(231.20000000000005, 100%, 65.5%)" stroke-width="1.5"></path><path d="M-111.17 702.13L86.62 692.46" stroke="hsl(231.20000000000005, 100%, 65.5%)" stroke-width="1.5"></path><path d="M86.62 692.46L86.62 692.46" stroke="hsl(231.20000000000005, 100%, 65.5%)" stroke-width="1.5"></path><path d="M86.62 692.46L249.03 661.35" stroke="hsl(231.20000000000005, 100%, 65.5%)" stroke-width="1.5"></path><path d="M249.03 661.35L249.03 661.35" stroke="hsl(231.20000000000005, 100%, 65.5%)" stroke-width="1.5"></path><path d="M249.03 661.35L351.89 707.22" stroke="hsl(231.20000000000005, 100%, 65.5%)" stroke-width="1.5"></path><path d="M249.03 661.35L371.21 501.89" stroke="hsl(231.20000000000005, 100%, 65.5%)" stroke-width="1.5"></path><path d="M249.03 661.35L512.12 545.37" stroke="hsl(231.20000000000005, 100%, 65.5%)" stroke-width="1.5"></path><path d="M249.03 661.35L540.45 687.79" stroke="hsl(231.20000000000005, 100%, 65.5%)" stroke-width="1.5"></path><path d="M351.89 707.22L351.89 707.22" stroke="hsl(231.20000000000005, 100%, 65.5%)" stroke-width="1.5"></path><path d="M351.89 707.22L540.45 687.79" stroke="hsl(231.20000000000005, 100%, 65.5%)" stroke-width="1.5"></path><path d="M351.89 707.22L371.21 501.89" stroke="hsl(231.20000000000005, 100%, 65.5%)" stroke-width="1.5"></path><path d="M351.89 707.22L512.12 545.37" stroke="hsl(231.20000000000005, 100%, 65.5%)" stroke-width="1.5"></path><path d="M351.89 707.22L86.62 692.46" stroke="hsl(231.20000000000005, 100%, 65.5%)" stroke-width="1.5"></path><path d="M512.12 545.37L512.12 545.37" stroke="hsl(231.20000000000005, 100%, 65.5%)" stroke-width="1.5"></path><path d="M512.12 545.37L683.92 656.35" stroke="hsl(231.20000000000005, 100%, 65.5%)" stroke-width="1.5"></path><path d="M654.92 391.64L654.92 391.64" stroke="hsl(231.20000000000005, 100%, 65.5%)" stroke-width="1.5"></path><path d="M683.92 656.35L683.92 656.35" stroke="hsl(231.20000000000005, 100%, 65.5%)" stroke-width="1.5"></path><path d="M683.92 656.35L795.45 675" stroke="hsl(231.20000000000005, 100%, 65.5%)" stroke-width="1.5"></path><path d="M683.92 656.35L540.45 687.79" stroke="hsl(231.20000000000005, 100%, 65.5%)" stroke-width="1.5"></path><path d="M807.21 379.66L807.21 379.66" stroke="hsl(231.20000000000005, 100%, 65.5%)" stroke-width="1.5"></path><path d="M807.21 379.66L851.21 523.5" stroke="hsl(231.20000000000005, 100%, 65.5%)" stroke-width="1.5"></path><path d="M807.21 379.66L654.92 391.64" stroke="hsl(231.20000000000005, 100%, 65.5%)" stroke-width="1.5"></path><path d="M807.21 379.66L652.42 537.19" stroke="hsl(231.20000000000005, 100%, 65.5%)" stroke-width="1.5"></path><path d="M851.21 523.5L851.21 523.5" stroke="hsl(231.20000000000005, 100%, 65.5%)" stroke-width="1.5"></path><path d="M795.45 675L795.45 675" stroke="hsl(231.20000000000005, 100%, 65.5%)" stroke-width="1.5"></path><path d="M795.45 675L851.21 523.5" stroke="hsl(231.20000000000005, 100%, 65.5%)" stroke-width="1.5"></path><path d="M795.45 675L957.84 686.77" stroke="hsl(231.20000000000005, 100%, 65.5%)" stroke-width="1.5"></path><path d="M957.84 686.77L957.84 686.77" stroke="hsl(231.20000000000005, 100%, 65.5%)" stroke-width="1.5"></path><path d="M957.84 686.77L851.21 523.5" stroke="hsl(231.20000000000005, 100%, 65.5%)" stroke-width="1.5"></path><path d="M1128.33 189.83L1128.33 189.83" stroke="hsl(231.20000000000005, 100%, 65.5%)" stroke-width="1.5"></path><path d="M1128.33 189.83L1115.82 365.23" stroke="hsl(231.20000000000005, 100%, 65.5%)" stroke-width="1.5"></path><path d="M1128.33 189.83L1300.6 -63.77" stroke="hsl(231.20000000000005, 100%, 65.5%)" stroke-width="1.5"></path><path d="M1128.33 189.83L1440.4 250.91" stroke="hsl(231.20000000000005, 100%, 65.5%)" stroke-width="1.5"></path><path d="M1115.82 365.23L1115.82 365.23" stroke="hsl(231.20000000000005, 100%, 65.5%)" stroke-width="1.5"></path><path d="M1115.82 365.23L1106.57 514.65" stroke="hsl(231.20000000000005, 100%, 65.5%)" stroke-width="1.5"></path><path d="M1115.82 365.23L975.61 546.01" stroke="hsl(231.20000000000005, 100%, 65.5%)" stroke-width="1.5"></path><path d="M1115.82 365.23L851.21 523.5" stroke="hsl(231.20000000000005, 100%, 65.5%)" stroke-width="1.5"></path><path d="M1115.82 365.23L807.21 379.66" stroke="hsl(231.20000000000005, 100%, 65.5%)" stroke-width="1.5"></path><path d="M1106.57 514.65L1106.57 514.65" stroke="hsl(231.20000000000005, 100%, 65.5%)" stroke-width="1.5"></path><path d="M1106.57 514.65L957.84 686.77" stroke="hsl(231.20000000000005, 100%, 65.5%)" stroke-width="1.5"></path><path d="M1106.57 514.65L851.21 523.5" stroke="hsl(231.20000000000005, 100%, 65.5%)" stroke-width="1.5"></path><path d="M1300.6 -63.77L1300.6 -63.77" stroke="hsl(231.20000000000005, 100%, 65.5%)" stroke-width="1.5"></path><path d="M1309.29 694.61L1309.29 694.61" stroke="hsl(231.20000000000005, 100%, 65.5%)" stroke-width="1.5"></path><path d="M1309.29 694.61L1444.95 682.77" stroke="hsl(231.20000000000005, 100%, 65.5%)" stroke-width="1.5"></path><path d="M1309.29 694.61L1420.47 555.09" stroke="hsl(231.20000000000005, 100%, 65.5%)" stroke-width="1.5"></path><path d="M1440.4 250.91L1440.4 250.91" stroke="hsl(231.20000000000005, 100%, 65.5%)" stroke-width="1.5"></path><path d="M1440.4 250.91L1455.07 401.71" stroke="hsl(231.20000000000005, 100%, 65.5%)" stroke-width="1.5"></path><path d="M1440.4 250.91L1605.86 216.85" stroke="hsl(231.20000000000005, 100%, 65.5%)" stroke-width="1.5"></path><path d="M1455.07 401.71L1455.07 401.71" stroke="hsl(231.20000000000005, 100%, 65.5%)" stroke-width="1.5"></path><path d="M1455.07 401.71L1577.83 381.38" stroke="hsl(231.20000000000005, 100%, 65.5%)" stroke-width="1.5"></path><path d="M1420.47 555.09L1420.47 555.09" stroke="hsl(231.20000000000005, 100%, 65.5%)" stroke-width="1.5"></path><path d="M1420.47 555.09L1444.95 682.77" stroke="hsl(231.20000000000005, 100%, 65.5%)" stroke-width="1.5"></path><path d="M1420.47 555.09L1570.39 547.04" stroke="hsl(231.20000000000005, 100%, 65.5%)" stroke-width="1.5"></path><path d="M1420.47 555.09L1455.07 401.71" stroke="hsl(231.20000000000005, 100%, 65.5%)" stroke-width="1.5"></path><path d="M1444.95 682.77L1444.95 682.77" stroke="hsl(231.20000000000005, 100%, 65.5%)" stroke-width="1.5"></path><path d="M1444.95 682.77L1599.96 681.71" stroke="hsl(231.20000000000005, 100%, 65.5%)" stroke-width="1.5"></path><path d="M1444.95 682.77L1570.39 547.04" stroke="hsl(231.20000000000005, 100%, 65.5%)" stroke-width="1.5"></path><path d="M1600.44 -103.56L1600.44 -103.56" stroke="hsl(231.20000000000005, 100%, 65.5%)" stroke-width="1.5"></path><path d="M1600.44 -103.56L1557.4 58.97" stroke="hsl(231.20000000000005, 100%, 65.5%)" stroke-width="1.5"></path><path d="M1600.44 -103.56L1439.57 60.54" stroke="hsl(231.20000000000005, 100%, 65.5%)" stroke-width="1.5"></path><path d="M1600.44 -103.56L1300.6 -63.77" stroke="hsl(231.20000000000005, 100%, 65.5%)" stroke-width="1.5"></path><path d="M1600.44 -103.56L1605.86 216.85" stroke="hsl(231.20000000000005, 100%, 65.5%)" stroke-width="1.5"></path><path d="M1600.44 -103.56L1440.4 250.91" stroke="hsl(231.20000000000005, 100%, 65.5%)" stroke-width="1.5"></path><path d="M1557.4 58.97L1557.4 58.97" stroke="hsl(231.20000000000005, 100%, 65.5%)" stroke-width="1.5"></path><path d="M1557.4 58.97L1605.86 216.85" stroke="hsl(231.20000000000005, 100%, 65.5%)" stroke-width="1.5"></path><path d="M1605.86 216.85L1605.86 216.85" stroke="hsl(231.20000000000005, 100%, 65.5%)" stroke-width="1.5"></path><path d="M1605.86 216.85L1577.83 381.38" stroke="hsl(231.20000000000005, 100%, 65.5%)" stroke-width="1.5"></path><path d="M1605.86 216.85L1439.57 60.54" stroke="hsl(231.20000000000005, 100%, 65.5%)" stroke-width="1.5"></path><path d="M1577.83 381.38L1577.83 381.38" stroke="hsl(231.20000000000005, 100%, 65.5%)" stroke-width="1.5"></path><path d="M1577.83 381.38L1570.39 547.04" stroke="hsl(231.20000000000005, 100%, 65.5%)" stroke-width="1.5"></path><path d="M1570.39 547.04L1570.39 547.04" stroke="hsl(231.20000000000005, 100%, 65.5%)" stroke-width="1.5"></path><path d="M1570.39 547.04L1599.96 681.71" stroke="hsl(231.20000000000005, 100%, 65.5%)" stroke-width="1.5"></path><path d="M1599.96 681.71L1599.96 681.71" stroke="hsl(231.20000000000005, 100%, 65.5%)" stroke-width="1.5"></path><path d="M1599.96 681.71L1420.47 555.09" stroke="hsl(231.20000000000005, 100%, 65.5%)" stroke-width="1.5"></path><circle r="25" cx="61.71" cy="527.04" fill="url(&quot;#SvgjsRadialGradient1015&quot;)"></circle><circle r="25" cx="371.21" cy="501.89" fill="url(&quot;#SvgjsRadialGradient1015&quot;)"></circle><circle r="25" cx="528.41" cy="412.11" fill="url(&quot;#SvgjsRadialGradient1015&quot;)"></circle><circle r="25" cx="540.45" cy="687.79" fill="url(&quot;#SvgjsRadialGradient1015&quot;)"></circle><circle r="25" cx="652.42" cy="537.19" fill="url(&quot;#SvgjsRadialGradient1015&quot;)"></circle><circle r="25" cx="975.61" cy="546.01" fill="url(&quot;#SvgjsRadialGradient1015&quot;)"></circle><circle r="25" cx="1090.31" cy="687.08" fill="url(&quot;#SvgjsRadialGradient1015&quot;)"></circle><circle r="25" cx="1403.5" cy="-86.78" fill="url(&quot;#SvgjsRadialGradient1015&quot;)"></circle><circle r="25" cx="1439.57" cy="60.54" fill="url(&quot;#SvgjsRadialGradient1015&quot;)"></circle><circle r="5" cx="-102.45" cy="524.68" fill="#8193ff"></circle><circle r="5" cx="-111.17" cy="702.13" fill="#8193ff"></circle><circle r="5" cx="86.62" cy="692.46" fill="#8193ff"></circle><circle r="5" cx="249.03" cy="661.35" fill="#8193ff"></circle><circle r="5" cx="351.89" cy="707.22" fill="#8193ff"></circle><circle r="5" cx="512.12" cy="545.37" fill="#8193ff"></circle><circle r="5" cx="654.92" cy="391.64" fill="#8193ff"></circle><circle r="5" cx="683.92" cy="656.35" fill="#8193ff"></circle><circle r="5" cx="807.21" cy="379.66" fill="#8193ff"></circle><circle r="5" cx="851.21" cy="523.5" fill="#8193ff"></circle><circle r="5" cx="795.45" cy="675" fill="#8193ff"></circle><circle r="5" cx="957.84" cy="686.77" fill="#8193ff"></circle><circle r="5" cx="1128.33" cy="189.83" fill="#8193ff"></circle><circle r="5" cx="1115.82" cy="365.23" fill="#8193ff"></circle><circle r="5" cx="1106.57" cy="514.65" fill="#8193ff"></circle><circle r="5" cx="1300.6" cy="-63.77" fill="#8193ff"></circle><circle r="5" cx="1309.29" cy="694.61" fill="#8193ff"></circle><circle r="5" cx="1440.4" cy="250.91" fill="#8193ff"></circle><circle r="5" cx="1455.07" cy="401.71" fill="#8193ff"></circle><circle r="5" cx="1420.47" cy="555.09" fill="#8193ff"></circle><circle r="5" cx="1444.95" cy="682.77" fill="#8193ff"></circle><circle r="5" cx="1600.44" cy="-103.56" fill="#8193ff"></circle><circle r="5" cx="1557.4" cy="58.97" fill="#8193ff"></circle><circle r="5" cx="1605.86" cy="216.85" fill="#8193ff"></circle><circle r="5" cx="1577.83" cy="381.38" fill="#8193ff"></circle><circle r="5" cx="1570.39" cy="547.04" fill="#8193ff"></circle><circle r="5" cx="1599.96" cy="681.71" fill="#8193ff"></circle></g><defs><mask id="SvgjsMask1014"><rect width="1440" height="560" fill="#ffffff"></rect></mask><radialGradient id="SvgjsRadialGradient1015"><stop stop-color="#ffffff" offset="0.1"></stop><stop stop-color="rgba(2, 39, 255, 1)" offset="0.2"></stop><stop stop-color="rgba(2, 39, 255, 0)" offset="1"></stop></radialGradient></defs></svg>